<svg xmlns="http://www.w3.org/2000/svg" xmlns:xlink="http://www.w3.org/1999/xlink" width="100" zoomAndPan="magnify" viewBox="0 0 375 374.999991" height="100" preserveAspectRatio="xMidYMid meet" version="1.0"><defs><g/><clipPath id="ae5d4b4f9d"><path d="M 99.097656 94.859375 L 276.09375 94.859375 L 276.09375 232.789062 L 99.097656 232.789062 Z M 99.097656 94.859375 " clip-rule="nonzero"/></clipPath></defs><rect x="-37.5" width="450" fill="#ffffff" y="-37.499999" height="449.999989" fill-opacity="1"/><rect x="-37.5" width="450" fill="#ffffff" y="-37.499999" height="449.999989" fill-opacity="1"/><rect x="-37.5" width="450" fill="#f6fffa" y="-37.499999" height="449.999989" fill-opacity="1"/><g clip-path="url(#ae5d4b4f9d)"><path fill="#379960" d="M 187.597656 225.203125 C 158.25 225.203125 134.460938 201.496094 134.460938 172.253906 C 134.460938 143.015625 158.25 119.308594 187.597656 119.308594 C 216.941406 119.308594 240.730469 143.015625 240.730469 172.253906 C 240.730469 201.496094 216.941406 225.203125 187.597656 225.203125 Z M 275.042969 166.167969 L 194.578125 97.433594 C 190.5625 94 184.628906 94 180.613281 97.433594 L 100.148438 166.167969 C 98.035156 167.972656 99.316406 171.421875 102.101562 171.421875 L 118.414062 171.421875 C 120.070312 171.421875 121.414062 172.757812 121.414062 174.410156 L 121.414062 229.804688 C 121.414062 231.453125 122.753906 232.789062 124.410156 232.789062 L 250.78125 232.789062 C 252.4375 232.789062 253.777344 231.453125 253.777344 229.804688 L 253.777344 174.410156 C 253.777344 172.757812 255.121094 171.421875 256.777344 171.421875 L 273.089844 171.421875 C 275.875 171.421875 277.152344 167.972656 275.042969 166.167969 " fill-opacity="1" fill-rule="nonzero"/></g><path fill="#8ed429" d="M 176.425781 220.875 L 176.101562 198.5625 C 176.101562 194.101562 187.265625 191.742188 187.292969 184.664062 C 187.292969 184.648438 187.289062 184.632812 187.289062 184.617188 L 183.539062 141.222656 C 183.53125 141.109375 183.480469 141.003906 183.398438 140.925781 C 182.953125 140.515625 182.449219 140.5 181.886719 140.882812 C 181.765625 140.964844 181.691406 141.101562 181.6875 141.25 C 181.347656 154.316406 181.015625 167.375 180.671875 180.441406 C 180.671875 180.558594 180.621094 180.671875 180.535156 180.757812 C 179.878906 181.410156 179.226562 181.410156 178.566406 180.753906 C 178.480469 180.671875 178.429688 180.558594 178.425781 180.441406 C 177.953125 167.367188 177.484375 154.289062 177.007812 141.214844 C 177.003906 141.09375 176.953125 140.976562 176.863281 140.894531 C 176.347656 140.421875 175.832031 140.421875 175.308594 140.886719 C 175.214844 140.96875 175.164062 141.085938 175.160156 141.210938 C 174.734375 154.28125 174.3125 167.34375 173.882812 180.410156 C 173.878906 180.546875 173.816406 180.675781 173.710938 180.757812 C 173.132812 181.203125 172.558594 181.207031 171.980469 180.765625 C 171.871094 180.683594 171.8125 180.554688 171.808594 180.421875 C 171.398438 167.355469 170.800781 154.289062 170.386719 141.21875 C 170.382812 141.074219 170.3125 140.941406 170.195312 140.859375 C 169.5 140.375 168.992188 140.363281 168.425781 140.824219 C 168.324219 140.910156 168.265625 141.035156 168.261719 141.164062 C 167.863281 154.257812 167.46875 167.347656 167.070312 180.445312 C 167.066406 180.566406 167.011719 180.683594 166.925781 180.765625 C 166.246094 181.417969 165.667969 181.417969 165.1875 180.757812 C 165.132812 180.679688 165.097656 180.585938 165.097656 180.492188 C 164.789062 167.359375 164.480469 154.230469 164.171875 141.09375 C 164.167969 140.949219 164.09375 140.808594 163.972656 140.726562 C 163.511719 140.410156 163.050781 140.546875 162.589844 140.75 C 162.4375 140.820312 162.332031 140.964844 162.316406 141.128906 C 160.941406 155.621094 159.570312 170.121094 158.199219 184.617188 C 158.195312 184.632812 158.195312 184.648438 158.195312 184.667969 C 158.222656 191.742188 169.386719 194.101562 169.386719 198.5625 L 169.386719 218.714844 C 171.65625 219.601562 174.007812 220.324219 176.425781 220.875 " fill-opacity="1" fill-rule="nonzero"/><path fill="#8ed429" d="M 208.15625 213.84375 C 208.152344 213.734375 208.183594 213.625 208.25 213.539062 L 209.621094 211.71875 C 209.679688 211.640625 209.710938 211.542969 209.710938 211.441406 L 209.710938 196.320312 L 210.757812 148.648438 C 211.570312 133.457031 203.257812 142.292969 201.035156 150.332031 C 195.226562 171.328125 192.925781 182.339844 192.925781 203.726562 C 192.925781 203.738281 192.925781 203.75 192.925781 203.765625 C 193.273438 209.203125 201.699219 209.300781 201.050781 213.390625 C 201.050781 213.40625 201.050781 213.421875 201.046875 213.433594 L 201.144531 220.269531 C 203.570312 219.59375 205.921875 218.738281 208.183594 217.71875 L 208.15625 213.84375 " fill-opacity="1" fill-rule="nonzero"/><g fill="#379960" fill-opacity="1"><g transform="translate(99.111499, 277.046442)"><g><path d="M 2.195312 0 L 8.183594 0 L 8.183594 -6.167969 L 15.121094 -6.167969 L 15.121094 -11.355469 L 8.183594 -11.355469 L 8.183594 -15.417969 L 15.890625 -15.417969 L 15.890625 -20.753906 L 2.195312 -20.753906 Z M 2.195312 0 "/></g></g></g><g fill="#379960" fill-opacity="1"><g transform="translate(116.12365, 277.046442)"><g><path d="M 10.050781 0.445312 C 15.476562 0.445312 19.152344 -2.90625 19.152344 -7.855469 C 19.152344 -12.777344 15.476562 -16.128906 10.050781 -16.128906 C 4.59375 -16.128906 0.917969 -12.777344 0.917969 -7.855469 C 0.917969 -2.90625 4.59375 0.445312 10.050781 0.445312 Z M 6.492188 -7.855469 C 6.492188 -9.933594 7.976562 -11.414062 10.050781 -11.414062 C 12.125 -11.414062 13.578125 -9.933594 13.578125 -7.855469 C 13.578125 -5.753906 12.125 -4.269531 10.050781 -4.269531 C 7.976562 -4.269531 6.492188 -5.753906 6.492188 -7.855469 Z M 6.492188 -7.855469 "/></g></g></g><g fill="#379960" fill-opacity="1"><g transform="translate(136.188497, 277.046442)"><g><path d="M 10.050781 0.445312 C 15.476562 0.445312 19.152344 -2.90625 19.152344 -7.855469 C 19.152344 -12.777344 15.476562 -16.128906 10.050781 -16.128906 C 4.59375 -16.128906 0.917969 -12.777344 0.917969 -7.855469 C 0.917969 -2.90625 4.59375 0.445312 10.050781 0.445312 Z M 6.492188 -7.855469 C 6.492188 -9.933594 7.976562 -11.414062 10.050781 -11.414062 C 12.125 -11.414062 13.578125 -9.933594 13.578125 -7.855469 C 13.578125 -5.753906 12.125 -4.269531 10.050781 -4.269531 C 7.976562 -4.269531 6.492188 -5.753906 6.492188 -7.855469 Z M 6.492188 -7.855469 "/></g></g></g><g fill="#379960" fill-opacity="1"><g transform="translate(156.253344, 277.046442)"><g><path d="M 8.925781 0.445312 C 11.148438 0.445312 13.015625 -0.296875 14.410156 -1.570312 L 14.972656 0 L 19.066406 0 L 19.066406 -21.941406 L 13.371094 -21.941406 L 13.371094 -14.882812 C 12.125 -15.683594 10.613281 -16.128906 8.925781 -16.128906 C 4.210938 -16.128906 0.917969 -12.71875 0.917969 -7.855469 C 0.917969 -2.933594 4.210938 0.445312 8.925781 0.445312 Z M 6.492188 -7.855469 C 6.492188 -9.933594 7.945312 -11.414062 10.050781 -11.414062 C 12.125 -11.414062 13.578125 -9.933594 13.578125 -7.855469 C 13.578125 -5.753906 12.125 -4.269531 10.050781 -4.269531 C 7.945312 -4.269531 6.492188 -5.753906 6.492188 -7.855469 Z M 6.492188 -7.855469 "/></g></g></g><g fill="#379960" fill-opacity="1"><g transform="translate(177.296242, 277.046442)"><g><path d="M 14.585938 0 L 20.578125 0 L 20.578125 -20.753906 L 14.585938 -20.753906 L 14.585938 -13.3125 L 8.183594 -13.3125 L 8.183594 -20.753906 L 2.195312 -20.753906 L 2.195312 0 L 8.183594 0 L 8.183594 -7.796875 L 14.585938 -7.796875 Z M 14.585938 0 "/></g></g></g><g fill="#379960" fill-opacity="1"><g transform="translate(200.058141, 277.046442)"><g><path d="M 10.050781 0.445312 C 15.476562 0.445312 19.152344 -2.90625 19.152344 -7.855469 C 19.152344 -12.777344 15.476562 -16.128906 10.050781 -16.128906 C 4.59375 -16.128906 0.917969 -12.777344 0.917969 -7.855469 C 0.917969 -2.90625 4.59375 0.445312 10.050781 0.445312 Z M 6.492188 -7.855469 C 6.492188 -9.933594 7.976562 -11.414062 10.050781 -11.414062 C 12.125 -11.414062 13.578125 -9.933594 13.578125 -7.855469 C 13.578125 -5.753906 12.125 -4.269531 10.050781 -4.269531 C 7.976562 -4.269531 6.492188 -5.753906 6.492188 -7.855469 Z M 6.492188 -7.855469 "/></g></g></g><g fill="#379960" fill-opacity="1"><g transform="translate(220.122989, 277.046442)"><g><path d="M 8.210938 0.445312 C 10.316406 0.445312 12.125 -0.296875 13.28125 -1.601562 L 13.875 0 L 17.9375 0 L 17.9375 -15.683594 L 12.246094 -15.683594 L 12.246094 -7.265625 C 12.246094 -5.335938 11.296875 -4.269531 9.753906 -4.269531 C 8.273438 -4.269531 7.382812 -5.246094 7.382812 -7.085938 L 7.382812 -15.683594 L 1.691406 -15.683594 L 1.691406 -6.492188 C 1.691406 -2.253906 4.210938 0.445312 8.210938 0.445312 Z M 8.210938 0.445312 "/></g></g></g><g fill="#379960" fill-opacity="1"><g transform="translate(240.069288, 277.046442)"><g><path d="M 8.183594 0.445312 C 12.628906 0.445312 15.269531 -1.421875 15.269531 -4.566406 C 15.269531 -7.234375 13.429688 -8.863281 9.605469 -9.605469 C 7.234375 -10.050781 6.550781 -10.4375 6.550781 -11.207031 C 6.550781 -11.890625 7.117188 -12.273438 7.945312 -12.273438 C 8.984375 -12.273438 9.578125 -11.742188 9.636719 -10.792969 L 15.03125 -10.792969 C 14.824219 -14.261719 12.394531 -16.128906 8.003906 -16.128906 C 3.527344 -16.128906 1.097656 -14.378906 1.097656 -11.207031 C 1.097656 -8.539062 2.816406 -6.996094 6.730469 -6.257812 C 8.804688 -5.839844 9.664062 -5.335938 9.664062 -4.59375 C 9.664062 -3.914062 9.132812 -3.5 8.242188 -3.5 C 7.203125 -3.5 6.523438 -4.152344 6.523438 -5.101562 L 0.949219 -5.101562 C 0.949219 -1.75 3.796875 0.445312 8.183594 0.445312 Z M 8.183594 0.445312 "/></g></g></g><g fill="#379960" fill-opacity="1"><g transform="translate(256.340485, 277.046442)"><g><path d="M 9.785156 0.445312 C 13.847656 0.445312 16.960938 -1.570312 18.351562 -5.070312 L 12.839844 -5.070312 C 12.214844 -4.328125 11.117188 -3.855469 9.902344 -3.855469 C 8.300781 -3.855469 6.96875 -4.714844 6.550781 -6.433594 L 18.648438 -6.433594 C 18.945312 -12.273438 15.417969 -16.128906 9.8125 -16.128906 C 4.566406 -16.128906 0.917969 -12.75 0.917969 -7.855469 C 0.917969 -2.933594 4.535156 0.445312 9.785156 0.445312 Z M 6.582031 -9.515625 C 7.054688 -11.03125 8.300781 -11.859375 9.875 -11.859375 C 11.59375 -11.859375 12.75 -10.96875 13.222656 -9.515625 Z M 6.582031 -9.515625 "/></g></g></g><g fill="#379960" fill-opacity="1"><g transform="translate(124.789597, 296.926182)"><g><path d="M 8.453125 0 L 7.359375 0 L 7.359375 -4.4375 L 2.390625 -4.4375 L 2.390625 0 L 1.296875 0 L 1.296875 -9.421875 L 2.390625 -9.421875 L 2.390625 -5.421875 L 7.359375 -5.421875 L 7.359375 -9.421875 L 8.453125 -9.421875 Z M 8.453125 0 "/></g></g></g><g fill="#379960" fill-opacity="1"><g transform="translate(134.531994, 296.926182)"><g><path d="M 2.203125 0 L 1.140625 0 L 1.140625 -7.0625 L 2.203125 -7.0625 Z M 1.046875 -8.984375 C 1.046875 -9.222656 1.101562 -9.398438 1.21875 -9.515625 C 1.34375 -9.628906 1.492188 -9.6875 1.671875 -9.6875 C 1.847656 -9.6875 2 -9.628906 2.125 -9.515625 C 2.25 -9.398438 2.3125 -9.222656 2.3125 -8.984375 C 2.3125 -8.742188 2.25 -8.5625 2.125 -8.4375 C 2 -8.320312 1.847656 -8.265625 1.671875 -8.265625 C 1.492188 -8.265625 1.34375 -8.320312 1.21875 -8.4375 C 1.101562 -8.5625 1.046875 -8.742188 1.046875 -8.984375 Z M 1.046875 -8.984375 "/></g></g></g><g fill="#379960" fill-opacity="1"><g transform="translate(137.871875, 296.926182)"><g><path d="M 6.921875 -7.0625 L 6.921875 -6.390625 L 5.609375 -6.234375 C 5.734375 -6.085938 5.84375 -5.890625 5.9375 -5.640625 C 6.03125 -5.398438 6.078125 -5.128906 6.078125 -4.828125 C 6.078125 -4.128906 5.835938 -3.570312 5.359375 -3.15625 C 4.890625 -2.75 4.242188 -2.546875 3.421875 -2.546875 C 3.203125 -2.546875 3.003906 -2.5625 2.828125 -2.59375 C 2.367188 -2.351562 2.140625 -2.050781 2.140625 -1.6875 C 2.140625 -1.5 2.21875 -1.359375 2.375 -1.265625 C 2.539062 -1.171875 2.816406 -1.125 3.203125 -1.125 L 4.453125 -1.125 C 5.210938 -1.125 5.796875 -0.960938 6.203125 -0.640625 C 6.617188 -0.316406 6.828125 0.148438 6.828125 0.765625 C 6.828125 1.546875 6.507812 2.140625 5.875 2.546875 C 5.25 2.960938 4.335938 3.171875 3.140625 3.171875 C 2.210938 3.171875 1.5 3 1 2.65625 C 0.5 2.3125 0.25 1.828125 0.25 1.203125 C 0.25 0.765625 0.382812 0.390625 0.65625 0.078125 C 0.9375 -0.234375 1.328125 -0.441406 1.828125 -0.546875 C 1.640625 -0.628906 1.484375 -0.753906 1.359375 -0.921875 C 1.242188 -1.097656 1.1875 -1.300781 1.1875 -1.53125 C 1.1875 -1.789062 1.253906 -2.015625 1.390625 -2.203125 C 1.523438 -2.398438 1.742188 -2.585938 2.046875 -2.765625 C 1.679688 -2.921875 1.382812 -3.175781 1.15625 -3.53125 C 0.925781 -3.894531 0.8125 -4.3125 0.8125 -4.78125 C 0.8125 -5.550781 1.039062 -6.144531 1.5 -6.5625 C 1.96875 -6.976562 2.625 -7.1875 3.46875 -7.1875 C 3.84375 -7.1875 4.175781 -7.144531 4.46875 -7.0625 Z M 1.28125 1.1875 C 1.28125 1.570312 1.441406 1.863281 1.765625 2.0625 C 2.085938 2.257812 2.550781 2.359375 3.15625 2.359375 C 4.050781 2.359375 4.710938 2.222656 5.140625 1.953125 C 5.578125 1.679688 5.796875 1.316406 5.796875 0.859375 C 5.796875 0.472656 5.675781 0.207031 5.4375 0.0625 C 5.207031 -0.0820312 4.765625 -0.15625 4.109375 -0.15625 L 2.828125 -0.15625 C 2.335938 -0.15625 1.957031 -0.0390625 1.6875 0.1875 C 1.414062 0.414062 1.28125 0.75 1.28125 1.1875 Z M 1.859375 -4.796875 C 1.859375 -4.304688 2 -3.929688 2.28125 -3.671875 C 2.5625 -3.421875 2.953125 -3.296875 3.453125 -3.296875 C 4.492188 -3.296875 5.015625 -3.804688 5.015625 -4.828125 C 5.015625 -5.890625 4.488281 -6.421875 3.4375 -6.421875 C 2.925781 -6.421875 2.535156 -6.285156 2.265625 -6.015625 C 1.992188 -5.742188 1.859375 -5.335938 1.859375 -4.796875 Z M 1.859375 -4.796875 "/></g></g></g><g fill="#379960" fill-opacity="1"><g transform="translate(145.106134, 296.926182)"><g><path d="M 5.96875 0 L 5.96875 -4.578125 C 5.96875 -5.148438 5.835938 -5.578125 5.578125 -5.859375 C 5.316406 -6.140625 4.90625 -6.28125 4.34375 -6.28125 C 3.601562 -6.28125 3.0625 -6.078125 2.71875 -5.671875 C 2.375 -5.273438 2.203125 -4.613281 2.203125 -3.6875 L 2.203125 0 L 1.140625 0 L 1.140625 -10.03125 L 2.203125 -10.03125 L 2.203125 -7 C 2.203125 -6.632812 2.1875 -6.328125 2.15625 -6.078125 L 2.21875 -6.078125 C 2.425781 -6.421875 2.722656 -6.691406 3.109375 -6.890625 C 3.503906 -7.085938 3.953125 -7.1875 4.453125 -7.1875 C 5.316406 -7.1875 5.960938 -6.976562 6.390625 -6.5625 C 6.828125 -6.15625 7.046875 -5.503906 7.046875 -4.609375 L 7.046875 0 Z M 5.96875 0 "/></g></g></g><g fill="#379960" fill-opacity="1"><g transform="translate(153.210828, 296.926182)"><g/></g></g><g fill="#379960" fill-opacity="1"><g transform="translate(156.640976, 296.926182)"><g><path d="M 3.796875 -0.765625 C 4.515625 -0.765625 5.035156 -0.957031 5.359375 -1.34375 C 5.691406 -1.726562 5.867188 -2.375 5.890625 -3.28125 L 5.890625 -3.515625 C 5.890625 -4.503906 5.71875 -5.210938 5.375 -5.640625 C 5.039062 -6.078125 4.515625 -6.296875 3.796875 -6.296875 C 3.160156 -6.296875 2.675781 -6.050781 2.34375 -5.5625 C 2.007812 -5.070312 1.84375 -4.382812 1.84375 -3.5 C 1.84375 -2.613281 2.007812 -1.9375 2.34375 -1.46875 C 2.675781 -1 3.160156 -0.765625 3.796875 -0.765625 Z M 3.640625 0.125 C 2.734375 0.125 2.019531 -0.191406 1.5 -0.828125 C 0.988281 -1.472656 0.734375 -2.367188 0.734375 -3.515625 C 0.734375 -4.671875 0.988281 -5.570312 1.5 -6.21875 C 2.019531 -6.863281 2.742188 -7.1875 3.671875 -7.1875 C 4.640625 -7.1875 5.382812 -6.820312 5.90625 -6.09375 L 5.953125 -6.09375 L 6.109375 -7.0625 L 6.953125 -7.0625 L 6.953125 3.171875 L 5.890625 3.171875 L 5.890625 0.140625 C 5.890625 -0.285156 5.910156 -0.648438 5.953125 -0.953125 L 5.875 -0.953125 C 5.375 -0.234375 4.628906 0.125 3.640625 0.125 Z M 3.640625 0.125 "/></g></g></g><g fill="#379960" fill-opacity="1"><g transform="translate(164.732775, 296.926182)"><g><path d="M 2.140625 -7.0625 L 2.140625 -2.484375 C 2.140625 -1.910156 2.269531 -1.476562 2.53125 -1.1875 C 2.789062 -0.90625 3.203125 -0.765625 3.765625 -0.765625 C 4.503906 -0.765625 5.046875 -0.96875 5.390625 -1.375 C 5.734375 -1.78125 5.90625 -2.441406 5.90625 -3.359375 L 5.90625 -7.0625 L 6.96875 -7.0625 L 6.96875 0 L 6.078125 0 L 5.9375 -0.953125 L 5.875 -0.953125 C 5.65625 -0.597656 5.347656 -0.328125 4.953125 -0.140625 C 4.566406 0.0351562 4.125 0.125 3.625 0.125 C 2.769531 0.125 2.128906 -0.078125 1.703125 -0.484375 C 1.273438 -0.890625 1.0625 -1.539062 1.0625 -2.4375 L 1.0625 -7.0625 Z M 2.140625 -7.0625 "/></g></g></g><g fill="#379960" fill-opacity="1"><g transform="translate(172.83747, 296.926182)"><g><path d="M 5.484375 0 L 5.265625 -1 L 5.21875 -1 C 4.863281 -0.5625 4.507812 -0.265625 4.15625 -0.109375 C 3.8125 0.046875 3.375 0.125 2.84375 0.125 C 2.144531 0.125 1.597656 -0.0507812 1.203125 -0.40625 C 0.804688 -0.769531 0.609375 -1.285156 0.609375 -1.953125 C 0.609375 -3.378906 1.75 -4.128906 4.03125 -4.203125 L 5.234375 -4.234375 L 5.234375 -4.671875 C 5.234375 -5.222656 5.113281 -5.628906 4.875 -5.890625 C 4.632812 -6.160156 4.25 -6.296875 3.71875 -6.296875 C 3.132812 -6.296875 2.472656 -6.113281 1.734375 -5.75 L 1.40625 -6.578125 C 1.75 -6.765625 2.128906 -6.910156 2.546875 -7.015625 C 2.960938 -7.128906 3.378906 -7.1875 3.796875 -7.1875 C 4.628906 -7.1875 5.25 -7 5.65625 -6.625 C 6.0625 -6.25 6.265625 -5.648438 6.265625 -4.828125 L 6.265625 0 Z M 3.0625 -0.75 C 3.726562 -0.75 4.25 -0.929688 4.625 -1.296875 C 5.007812 -1.660156 5.203125 -2.175781 5.203125 -2.84375 L 5.203125 -3.46875 L 4.125 -3.4375 C 3.28125 -3.40625 2.671875 -3.269531 2.296875 -3.03125 C 1.921875 -2.800781 1.734375 -2.4375 1.734375 -1.9375 C 1.734375 -1.550781 1.847656 -1.253906 2.078125 -1.046875 C 2.316406 -0.847656 2.644531 -0.75 3.0625 -0.75 Z M 3.0625 -0.75 "/></g></g></g><g fill="#379960" fill-opacity="1"><g transform="translate(180.181342, 296.926182)"><g><path d="M 2.203125 0 L 1.140625 0 L 1.140625 -10.03125 L 2.203125 -10.03125 Z M 2.203125 0 "/></g></g></g><g fill="#379960" fill-opacity="1"><g transform="translate(183.521223, 296.926182)"><g><path d="M 2.203125 0 L 1.140625 0 L 1.140625 -7.0625 L 2.203125 -7.0625 Z M 1.046875 -8.984375 C 1.046875 -9.222656 1.101562 -9.398438 1.21875 -9.515625 C 1.34375 -9.628906 1.492188 -9.6875 1.671875 -9.6875 C 1.847656 -9.6875 2 -9.628906 2.125 -9.515625 C 2.25 -9.398438 2.3125 -9.222656 2.3125 -8.984375 C 2.3125 -8.742188 2.25 -8.5625 2.125 -8.4375 C 2 -8.320312 1.847656 -8.265625 1.671875 -8.265625 C 1.492188 -8.265625 1.34375 -8.320312 1.21875 -8.4375 C 1.101562 -8.5625 1.046875 -8.742188 1.046875 -8.984375 Z M 1.046875 -8.984375 "/></g></g></g><g fill="#379960" fill-opacity="1"><g transform="translate(186.861103, 296.926182)"><g><path d="M 3.421875 -0.75 C 3.609375 -0.75 3.789062 -0.765625 3.96875 -0.796875 C 4.144531 -0.828125 4.285156 -0.859375 4.390625 -0.890625 L 4.390625 -0.0625 C 4.265625 -0.0078125 4.085938 0.03125 3.859375 0.0625 C 3.640625 0.101562 3.441406 0.125 3.265625 0.125 C 1.898438 0.125 1.21875 -0.59375 1.21875 -2.03125 L 1.21875 -6.234375 L 0.203125 -6.234375 L 0.203125 -6.75 L 1.21875 -7.1875 L 1.65625 -8.703125 L 2.28125 -8.703125 L 2.28125 -7.0625 L 4.328125 -7.0625 L 4.328125 -6.234375 L 2.28125 -6.234375 L 2.28125 -2.078125 C 2.28125 -1.648438 2.378906 -1.320312 2.578125 -1.09375 C 2.785156 -0.863281 3.066406 -0.75 3.421875 -0.75 Z M 3.421875 -0.75 "/></g></g></g><g fill="#379960" fill-opacity="1"><g transform="translate(191.522755, 296.926182)"><g><path d="M 0.015625 -7.0625 L 1.15625 -7.0625 L 2.703125 -3.03125 C 3.046875 -2.113281 3.257812 -1.453125 3.34375 -1.046875 L 3.390625 -1.046875 C 3.441406 -1.265625 3.554688 -1.640625 3.734375 -2.171875 C 3.921875 -2.703125 4.507812 -4.332031 5.5 -7.0625 L 6.640625 -7.0625 L 3.609375 0.984375 C 3.304688 1.773438 2.953125 2.335938 2.546875 2.671875 C 2.148438 3.003906 1.65625 3.171875 1.0625 3.171875 C 0.738281 3.171875 0.421875 3.132812 0.109375 3.0625 L 0.109375 2.203125 C 0.335938 2.253906 0.597656 2.28125 0.890625 2.28125 C 1.628906 2.28125 2.15625 1.867188 2.46875 1.046875 L 2.859375 0.03125 Z M 0.015625 -7.0625 "/></g></g></g><g fill="#379960" fill-opacity="1"><g transform="translate(198.176726, 296.926182)"><g/></g></g><g fill="#379960" fill-opacity="1"><g transform="translate(201.606874, 296.926182)"><g><path d="M 4.421875 0.125 C 3.960938 0.125 3.539062 0.0390625 3.15625 -0.125 C 2.78125 -0.289062 2.460938 -0.550781 2.203125 -0.90625 L 2.125 -0.90625 C 2.175781 -0.5 2.203125 -0.109375 2.203125 0.265625 L 2.203125 3.171875 L 1.140625 3.171875 L 1.140625 -7.0625 L 2 -7.0625 L 2.15625 -6.09375 L 2.203125 -6.09375 C 2.484375 -6.476562 2.804688 -6.753906 3.171875 -6.921875 C 3.535156 -7.097656 3.953125 -7.1875 4.421875 -7.1875 C 5.359375 -7.1875 6.082031 -6.867188 6.59375 -6.234375 C 7.101562 -5.597656 7.359375 -4.703125 7.359375 -3.546875 C 7.359375 -2.378906 7.097656 -1.472656 6.578125 -0.828125 C 6.054688 -0.191406 5.335938 0.125 4.421875 0.125 Z M 4.265625 -6.28125 C 3.546875 -6.28125 3.023438 -6.082031 2.703125 -5.6875 C 2.378906 -5.289062 2.210938 -4.65625 2.203125 -3.78125 L 2.203125 -3.546875 C 2.203125 -2.546875 2.367188 -1.832031 2.703125 -1.40625 C 3.035156 -0.976562 3.566406 -0.765625 4.296875 -0.765625 C 4.898438 -0.765625 5.375 -1.007812 5.71875 -1.5 C 6.070312 -2 6.25 -2.679688 6.25 -3.546875 C 6.25 -4.429688 6.070312 -5.109375 5.71875 -5.578125 C 5.375 -6.046875 4.890625 -6.28125 4.265625 -6.28125 Z M 4.265625 -6.28125 "/></g></g></g><g fill="#379960" fill-opacity="1"><g transform="translate(209.698673, 296.926182)"><g><path d="M 4.359375 -7.1875 C 4.671875 -7.1875 4.953125 -7.164062 5.203125 -7.125 L 5.046875 -6.125 C 4.753906 -6.1875 4.5 -6.21875 4.28125 -6.21875 C 3.707031 -6.21875 3.21875 -5.984375 2.8125 -5.515625 C 2.40625 -5.054688 2.203125 -4.484375 2.203125 -3.796875 L 2.203125 0 L 1.140625 0 L 1.140625 -7.0625 L 2.015625 -7.0625 L 2.140625 -5.75 L 2.1875 -5.75 C 2.445312 -6.21875 2.757812 -6.570312 3.125 -6.8125 C 3.5 -7.0625 3.910156 -7.1875 4.359375 -7.1875 Z M 4.359375 -7.1875 "/></g></g></g><g fill="#379960" fill-opacity="1"><g transform="translate(215.088905, 296.926182)"><g><path d="M 7.234375 -3.546875 C 7.234375 -2.390625 6.941406 -1.488281 6.359375 -0.84375 C 5.785156 -0.195312 4.984375 0.125 3.953125 0.125 C 3.328125 0.125 2.769531 -0.0195312 2.28125 -0.3125 C 1.789062 -0.613281 1.410156 -1.039062 1.140625 -1.59375 C 0.867188 -2.144531 0.734375 -2.796875 0.734375 -3.546875 C 0.734375 -4.691406 1.019531 -5.582031 1.59375 -6.21875 C 2.175781 -6.863281 2.976562 -7.1875 4 -7.1875 C 4.988281 -7.1875 5.773438 -6.859375 6.359375 -6.203125 C 6.941406 -5.546875 7.234375 -4.660156 7.234375 -3.546875 Z M 1.84375 -3.546875 C 1.84375 -2.640625 2.023438 -1.945312 2.390625 -1.46875 C 2.753906 -1 3.285156 -0.765625 3.984375 -0.765625 C 4.679688 -0.765625 5.210938 -1 5.578125 -1.46875 C 5.941406 -1.9375 6.125 -2.628906 6.125 -3.546875 C 6.125 -4.441406 5.941406 -5.117188 5.578125 -5.578125 C 5.210938 -6.046875 4.675781 -6.28125 3.96875 -6.28125 C 3.269531 -6.28125 2.738281 -6.050781 2.375 -5.59375 C 2.019531 -5.132812 1.84375 -4.453125 1.84375 -3.546875 Z M 1.84375 -3.546875 "/></g></g></g><g fill="#379960" fill-opacity="1"><g transform="translate(223.064647, 296.926182)"><g><path d="M 5.9375 -0.953125 L 5.890625 -0.953125 C 5.390625 -0.234375 4.648438 0.125 3.671875 0.125 C 2.742188 0.125 2.019531 -0.1875 1.5 -0.8125 C 0.988281 -1.445312 0.734375 -2.347656 0.734375 -3.515625 C 0.734375 -4.679688 0.988281 -5.582031 1.5 -6.21875 C 2.019531 -6.863281 2.742188 -7.1875 3.671875 -7.1875 C 4.628906 -7.1875 5.363281 -6.84375 5.875 -6.15625 L 5.953125 -6.15625 L 5.90625 -6.65625 L 5.890625 -7.15625 L 5.890625 -10.03125 L 6.953125 -10.03125 L 6.953125 0 L 6.078125 0 Z M 3.796875 -0.765625 C 4.535156 -0.765625 5.066406 -0.960938 5.390625 -1.359375 C 5.722656 -1.753906 5.890625 -2.394531 5.890625 -3.28125 L 5.890625 -3.515625 C 5.890625 -4.515625 5.722656 -5.226562 5.390625 -5.65625 C 5.054688 -6.082031 4.523438 -6.296875 3.796875 -6.296875 C 3.160156 -6.296875 2.675781 -6.050781 2.34375 -5.5625 C 2.007812 -5.070312 1.84375 -4.382812 1.84375 -3.5 C 1.84375 -2.59375 2.007812 -1.910156 2.34375 -1.453125 C 2.675781 -0.992188 3.160156 -0.765625 3.796875 -0.765625 Z M 3.796875 -0.765625 "/></g></g></g><g fill="#379960" fill-opacity="1"><g transform="translate(231.156446, 296.926182)"><g><path d="M 2.140625 -7.0625 L 2.140625 -2.484375 C 2.140625 -1.910156 2.269531 -1.476562 2.53125 -1.1875 C 2.789062 -0.90625 3.203125 -0.765625 3.765625 -0.765625 C 4.503906 -0.765625 5.046875 -0.96875 5.390625 -1.375 C 5.734375 -1.78125 5.90625 -2.441406 5.90625 -3.359375 L 5.90625 -7.0625 L 6.96875 -7.0625 L 6.96875 0 L 6.078125 0 L 5.9375 -0.953125 L 5.875 -0.953125 C 5.65625 -0.597656 5.347656 -0.328125 4.953125 -0.140625 C 4.566406 0.0351562 4.125 0.125 3.625 0.125 C 2.769531 0.125 2.128906 -0.078125 1.703125 -0.484375 C 1.273438 -0.890625 1.0625 -1.539062 1.0625 -2.4375 L 1.0625 -7.0625 Z M 2.140625 -7.0625 "/></g></g></g><g fill="#379960" fill-opacity="1"><g transform="translate(239.26114, 296.926182)"><g><path d="M 3.953125 0.125 C 2.929688 0.125 2.140625 -0.1875 1.578125 -0.8125 C 1.015625 -1.445312 0.734375 -2.335938 0.734375 -3.484375 C 0.734375 -4.671875 1.019531 -5.582031 1.59375 -6.21875 C 2.164062 -6.863281 2.976562 -7.1875 4.03125 -7.1875 C 4.363281 -7.1875 4.703125 -7.148438 5.046875 -7.078125 C 5.390625 -7.003906 5.65625 -6.921875 5.84375 -6.828125 L 5.515625 -5.921875 C 5.273438 -6.015625 5.015625 -6.09375 4.734375 -6.15625 C 4.460938 -6.21875 4.21875 -6.25 4 -6.25 C 2.5625 -6.25 1.84375 -5.332031 1.84375 -3.5 C 1.84375 -2.632812 2.019531 -1.96875 2.375 -1.5 C 2.726562 -1.039062 3.25 -0.8125 3.9375 -0.8125 C 4.519531 -0.8125 5.125 -0.9375 5.75 -1.1875 L 5.75 -0.234375 C 5.269531 0.00390625 4.671875 0.125 3.953125 0.125 Z M 3.953125 0.125 "/></g></g></g><g fill="#379960" fill-opacity="1"><g transform="translate(245.547599, 296.926182)"><g><path d="M 3.421875 -0.75 C 3.609375 -0.75 3.789062 -0.765625 3.96875 -0.796875 C 4.144531 -0.828125 4.285156 -0.859375 4.390625 -0.890625 L 4.390625 -0.0625 C 4.265625 -0.0078125 4.085938 0.03125 3.859375 0.0625 C 3.640625 0.101562 3.441406 0.125 3.265625 0.125 C 1.898438 0.125 1.21875 -0.59375 1.21875 -2.03125 L 1.21875 -6.234375 L 0.203125 -6.234375 L 0.203125 -6.75 L 1.21875 -7.1875 L 1.65625 -8.703125 L 2.28125 -8.703125 L 2.28125 -7.0625 L 4.328125 -7.0625 L 4.328125 -6.234375 L 2.28125 -6.234375 L 2.28125 -2.078125 C 2.28125 -1.648438 2.378906 -1.320312 2.578125 -1.09375 C 2.785156 -0.863281 3.066406 -0.75 3.421875 -0.75 Z M 3.421875 -0.75 "/></g></g></g></svg>